<svg xmlns="http://www.w3.org/2000/svg" version="1.1" xmlns:xlink="http://www.w3.org/1999/xlink" xmlns:svgjs="http://svgjs.dev/svgjs" width="100%" height="100%" viewBox="0 0 1000 600"><rect width="1000" height="600" x="0" y="0" fill="#e2d3f4"/><g><rect width="333.3333333333333" height="333.3333333333333" rx="13.333333333333334" ry="13.333333333333334" y="188.72575972073702" fill="#013dc4" transform="matrix(0.7507349725604247,0,0,0.7507349725604247,0,33.19449174553533)" x="166.5035858154297"/><path d="M284.97340336284253 430.3924335460205Q278.4771482812119 430.3924335460205 275.668616948928 427.4862141673963Q272.8600856166441 424.5799947887721 272.8600856166441 416.4963089541115L272.8600856166441 416.4963089541115Q272.8600856166441 411.0502003706392 273.9102321148024 403.30842269816964Q274.96037861296077 395.5666450257001 277.59795586414907 379.9365576112505L277.59795586414907 379.9365576112505Q277.93986402634016 377.8118426033488 280.40648719643303 362.7923054785262Q282.87311036652585 347.7483463421185 284.80244928174693 331.21464449902095L284.80244928174693 331.21464449902095Q286.5608341158726 317.14756582601643 286.5608341158726 310.1140264895141L286.5608341158726 310.1140264895141Q286.5608341158726 302.201294735949 280.77281737020917 302.201294735949L280.77281737020917 302.201294735949Q276.3768552848952 302.201294735949 269.78291215692434 306.86589894869877Q263.1889690289534 311.53050316144856 255.6181454375794 321.7144819924259L255.6181454375794 321.7144819924259Q253.15152226748657 325.06029757958146 250.17203685410712 325.06029757958146L250.17203685410712 325.06029757958146Q247.70541368401427 325.06029757958146 245.8493408035484 322.69136245582894Q244.0176899346676 320.3224273320764 244.0176899346676 317.3185199071119L244.0176899346676 317.3185199071119Q244.0176899346676 314.3390344937325 245.0678364328259 311.6037691962038Q246.11798293098425 308.8929259102602 248.92651426326816 305.0098260682329L248.92651426326816 305.0098260682329Q257.5474843528005 293.2384164842256 268.097793357554 286.8154274373502Q278.64810236230744 280.3924383904748 290.24855786521925 280.3924383904748L290.24855786521925 280.3924383904748Q299.91967445290993 280.3924383904748 304.75523274675527 286.3758312288188Q309.5907910406006 292.35922406716276 309.5907910406006 303.788725488979L309.5907910406006 303.788725488979Q309.5907910406006 313.99712633154144 306.7822597083167 333.3393595069228L306.7822597083167 333.3393595069228Q315.57418387894455 307.3054951572302 329.12840030866255 293.84896677385245Q342.6581947267955 280.3924383904748 360.9502814040185 280.3924383904748L360.9502814040185 280.3924383904748Q375.3592682392142 280.3924383904748 382.66144970315236 288.57381227147573Q389.9636311670905 296.7551861524767 389.9636311670905 310.4803566632902L389.9636311670905 310.4803566632902Q389.9636311670905 318.1977123241747 387.66796207809324 329.2853055837999L387.66796207809324 329.2853055837999L376.94669899224425 379.57022743747433Q375.18831415811866 388.36215160810224 375.18831415811866 394.68745260863733L375.18831415811866 394.68745260863733Q375.18831415811866 402.0873221189158 378.6073957800295 405.77504586826245Q382.0508994135255 409.46276961760924 388.205246332965 409.46276961760924L388.205246332965 409.46276961760924Q393.99326307862833 409.46276961760924 399.5370597084409 405.60409178716696Q405.0808563382535 401.7209919451397 412.6516799296275 392.7581136934162L412.6516799296275 392.7581136934162Q414.7519729259442 390.2914905233234 417.3895501771325 390.2914905233234L417.3895501771325 390.2914905233234Q419.6852192661298 390.2914905233234 421.004007891724 392.4162055312251Q422.3227965173182 394.51649852754184 422.3227965173182 398.2042222768885L422.3227965173182 398.2042222768885Q422.3227965173182 405.0668075322953 418.97698093016254 409.12086145541815L418.97698093016254 409.12086145541815Q409.8187265857585 420.1840327034582 400.8558483340351 425.2882331247394Q391.89297008231165 430.3924335460205 382.0508994135255 430.3924335460205L382.0508994135255 430.3924335460205Q367.10462832345803 430.3924335460205 358.6546123150212 421.50282132905244Q350.2290183181695 412.6376311236692 350.2290183181695 397.6913600336018L350.2290183181695 397.6913600336018Q350.2290183181695 391.8789212763534 351.1814767699875 385.01633602094665Q352.15835723339063 378.178172777125 354.4296043108028 367.62786377237154L354.4296043108028 367.62786377237154L361.4631436473051 335.4396525032394Q361.8294738210813 333.85222175020937 362.7086662381441 329.8225898386716Q363.5878586552069 325.76853591554874 364.1007208984935 322.15407820095726Q364.6380051533652 318.5640424979509 364.6380051533652 315.0472728296997L364.6380051533652 315.0472728296997Q364.6380051533652 309.40578815354684 361.4631436473051 306.0843945779763Q358.3127041528301 302.73857899082066 352.50026539558166 302.73857899082066L352.50026539558166 302.73857899082066Q341.9499563908282 302.73857899082066 331.3996473860748 313.99712633154144Q320.84933838132133 325.23125166067706 311.8864601295979 350.2882355469665Q302.9235818778744 375.345219433256 297.81938145659325 414.3960159577949L297.81938145659325 414.3960159577949Q296.5982808773394 423.35889420951827 294.2049237420018 426.87566387776945Q291.8359886182493 430.3924335460205 284.97340336284253 430.3924335460205L284.97340336284253 430.3924335460205Z " fill="#e2d3f4" transform="matrix(0.7507349725604247,0,0,0.7507349725604247,0,33.19449174553533)"/><path d="M619.3021045413502 426.98823952840866Q613.5709930179512 426.98823952840866 611.0932568330231 424.42432121530913Q608.6155206480951 421.8604029022097 608.6155206480951 414.7288317960253L608.6155206480951 414.7288317960253Q608.6155206480951 409.9241781504691 609.5419785259378 403.0942444928847Q610.4684364037805 396.26431083530025 612.7953538644085 382.4751703278743L612.7953538644085 382.4751703278743Q613.0969913130085 380.6007090401461 615.2730900493366 367.35020683379145Q617.4491887856648 354.078159095394 619.1512858170502 339.49183390238255L619.1512858170502 339.49183390238255Q620.7025641241356 327.08160744569915 620.7025641241356 320.87649421735745L620.7025641241356 320.87649421735745Q620.7025641241356 313.8957418354731 615.5962730299794 313.8957418354731L615.5962730299794 313.8957418354731Q611.718077262266 313.8957418354731 605.9007836106956 318.01093845565805Q600.0834899591252 322.1261350758429 593.4043750258409 331.11062193771266L593.4043750258409 331.11062193771266Q591.2282762895127 334.0623598275835 588.5997213802846 334.0623598275835L588.5997213802846 334.0623598275835Q586.4236226439564 334.0623598275835 584.7861622086996 331.9724432194268Q583.1702473054856 329.88252661127007 583.1702473054856 327.2324261699991L583.1702473054856 327.2324261699991Q583.1702473054856 324.6038712607711 584.0967051833284 322.1907716719715Q585.023163061171 319.7992176152148 587.5008992460992 316.37347802040125L587.5008992460992 316.37347802040125Q595.1064720572263 305.98853157574604 604.4141418997388 300.3220566484757Q613.7218117422512 294.6555817212053 623.9559394626065 294.6555817212053L623.9559394626065 294.6555817212053Q632.4879701515763 294.6555817212053 636.7539854960612 299.93423707170433Q641.0200008405461 305.21289242220337 641.0200008405461 315.2962014182586L641.0200008405461 315.2962014182586Q641.0200008405461 324.3022338121711 638.5422646556179 341.36629519011075L638.5422646556179 341.36629519011075Q646.298656191045 318.3987580324294 658.2564264748285 306.52716987681737Q670.1926512265691 294.6555817212053 686.330254726666 294.6555817212053L686.330254726666 294.6555817212053Q699.0421186319493 294.6555817212053 705.4842327127624 301.87333495556106Q711.9263467935755 309.09108818991683 711.9263467935755 321.1996771980003L711.9263467935755 321.1996771980003Q711.9263467935755 328.00806532354187 709.9010667815472 337.78973687099716L709.9010667815472 337.78973687099716L700.4425782147348 382.15198734723157Q698.8912999076493 389.9083788826586 698.8912999076493 395.4886716817576L698.8912999076493 395.4886716817576Q698.8912999076493 402.016967890742 701.9076743936488 405.27034322921287Q704.945594411691 408.5237185676836 710.37506848649 408.5237185676836L710.37506848649 408.5237185676836Q715.4813595806462 408.5237185676836 720.3721953543738 405.1195245049128Q725.2630311281014 401.6937849100993 731.9421460613859 393.7865746503722L731.9421460613859 393.7865746503722Q733.7950618170713 391.610475914044 736.1219792776994 391.610475914044L736.1219792776994 391.610475914044Q738.1472592897276 391.610475914044 739.3107180200417 393.4849372017722Q740.4741767503557 395.33785295745764 740.4741767503557 398.5912282959284L740.4741767503557 398.5912282959284Q740.4741767503557 404.64552279997014 737.5224388604848 408.2220811190837L737.5224388604848 408.2220811190837Q729.4428643444149 417.98220713449615 721.5356540846878 422.48522333145246Q713.6284438249609 426.98823952840866 704.945594411691 426.98823952840866L704.945594411691 426.98823952840866Q691.7597288014649 426.98823952840866 684.3049747146379 419.14566586481016Q676.8717661598535 411.3246377332545 676.8717661598535 398.13877212302845L676.8717661598535 398.13877212302845Q676.8717661598535 393.0109354968295 677.7120419095247 386.95664099278775Q678.573863191239 380.92389202078897 680.5775976712242 371.61622217827636L680.5775976712242 371.61622217827636L686.7827108995659 343.2192109457961Q687.1058938802087 341.8187513630107 687.8815330337515 338.26373857593984Q688.6571721872941 334.68718025682625 689.109628360194 331.498441514484Q689.5836300651368 328.3312483041846 689.5836300651368 325.2286916900138L689.5836300651368 325.2286916900138Q689.5836300651368 320.2516737881147 686.7827108995659 317.3214814302867Q684.0033372660379 314.36974354041587 678.8755006398388 314.36974354041587L678.8755006398388 314.36974354041587Q669.5678307973263 314.36974354041587 660.2601609548138 324.3022338121711Q650.9524911123012 334.21317855188346 643.0452808525743 356.3188944278507Q635.1380705928472 378.42461030381793 630.6350543958908 412.87591604034L630.6350543958908 412.87591604034Q629.5577777937483 420.78312630006707 627.4463156535487 423.88568291423786Q625.3563990453919 426.98823952840866 619.3021045413502 426.98823952840866L619.3021045413502 426.98823952840866ZM807.0067796986859 378.59697456016073Q809.0320597107141 378.59697456016073 810.1093363128567 380.6007090401461Q811.2081584470423 382.62598905217425 811.2081584470423 385.72854566634516L811.2081584470423 385.72854566634516Q811.2081584470423 393.16175422112946 806.7051422500859 394.56221380391486L806.7051422500859 394.56221380391486Q797.3974724075734 397.8155891423857 786.2368868093756 398.2895908473285L786.2368868093756 398.2895908473285Q783.2851489195048 411.3246377332545 774.6022995062349 419.14566586481016Q765.8979045609223 426.98823952840866 754.8881376870244 426.98823952840866L754.8881376870244 426.98823952840866Q745.5804678445119 426.98823952840866 738.9875350393988 422.48522333145246Q732.3946022342858 417.98220713449615 728.990408171515 410.54899857971185Q725.5646685767014 403.0942444928847 725.5646685767014 394.4113950796149L725.5646685767014 394.4113950796149Q725.5646685767014 382.62598905217425 730.0676847736577 373.38295580579035Q734.570700970614 364.1614680914492 742.4779112303411 358.9689948691217Q750.3851214900681 353.77652164679404 760.0159743132234 353.77652164679404L760.0159743132234 353.77652164679404Q771.8013803406641 353.77652164679404 779.0191335750199 361.92073275899253Q786.2368868093756 370.064943871191 787.4649821358182 382.0011686229315L787.4649821358182 382.0011686229315Q794.7689174983454 381.52716691798884 804.8522264944006 378.8986120087607L804.8522264944006 378.8986120087607Q806.0803218208432 378.59697456016073 807.0067796986859 378.59697456016073L807.0067796986859 378.59697456016073ZM756.1377785455098 410.54899857971185Q761.0932509153661 410.54899857971185 764.7344458306083 406.51998408769833Q768.3971862778933 402.46942406364195 769.6252816043359 394.8853967845577L769.6252816043359 394.8853967845577Q764.8206279587796 391.610475914044 762.2567096456801 386.3533660955879Q759.6927913325806 381.0747107450889 759.6927913325806 375.1712349653472L759.6927913325806 375.1712349653472Q759.6927913325806 372.693498780419 760.1667930375233 370.21576259549096L760.1667930375233 370.21576259549096L759.3911538839807 370.21576259549096Q753.186040655639 370.21576259549096 749.0708440354541 376.18387497136126Q744.9556474152691 382.15198734723157 744.9556474152691 393.0109354968295L744.9556474152691 393.0109354968295Q744.9556474152691 401.54296618579923 748.2952048819113 406.04598238275554Q751.6347623485535 410.54899857971185 756.1377785455098 410.54899857971185L756.1377785455098 410.54899857971185ZM961.9837916829279 297.4565008867762Q966.788445328484 298.38295876461893 969.2015449172836 300.70987622524706Q971.6146445060832 303.0367936858752 971.6146445060832 306.139350300046L971.6146445060832 306.139350300046Q971.6146445060832 311.267186926245 968.7275432123408 313.5941043868732Q965.8619874506414 315.9210218475013 959.6568742222997 315.44702014255853L959.6568742222997 315.44702014255853Q945.695369458531 314.36974354041587 937.8743413269754 313.98192396364453Q930.0317676633767 313.5941043868732 917.3199037580935 313.44328566257315L917.3199037580935 313.44328566257315Q911.5672467026518 341.9695700873106 906.7625930570955 370.8405830247337L906.7625930570955 370.8405830247337Q905.0604960257101 381.3763481936888 903.1860347379819 395.27321636132905Q901.3331189822966 409.14853899692633 900.7082985530537 417.68056968589616L900.7082985530537 417.68056968589616Q900.4066611044539 422.18358588285247 896.9809215096402 424.5751399396092Q893.5767274468694 426.98823952840866 888.7720738013132 426.98823952840866L888.7720738013132 426.98823952840866Q883.6442371751142 426.98823952840866 880.8648635415861 424.5105033434806Q878.0639443760153 422.03276715855253 878.0639443760153 417.98220713449615L878.0639443760153 417.98220713449615Q878.0639443760153 414.2763756231254 879.2274031063293 405.6581628059842Q880.3908618366434 397.03994998884303 881.9421401437288 387.5814614220305L881.9421401437288 387.5814614220305Q883.6442371751142 378.12297285521805 884.5706950529568 371.14222047333357L884.5706950529568 371.14222047333357Q886.2943376163852 359.356814445893 888.4488908206704 347.7222271427524Q890.6249895569986 336.08763983961177 892.8010882933268 325.68114786291375L892.8010882933268 325.68114786291375Q893.2750899982696 323.3542304022856 893.8783648954693 320.3378559162862Q894.5031853247121 317.3214814302867 895.2788244782548 313.5941043868732L895.2788244782548 313.5941043868732Q880.0892243880435 314.046560559773 871.3848294427307 316.07184057180126Q862.7019800294611 318.0971205838294 859.0607851142189 321.7383154990716Q855.4195901989767 325.37951041431376 855.4195901989767 331.11062193771266L855.4195901989767 331.11062193771266Q855.4195901989767 336.38927728821164 858.5221468131476 341.19393093376794L858.5221468131476 341.19393093376794Q859.1469672423902 342.29275306795336 859.1469672423902 343.52084839439607L859.1469672423902 343.52084839439607Q859.1469672423902 346.4725862842669 855.6565910514481 349.03650459736645Q852.166214860506 351.60042291046597 848.4388378170923 351.60042291046597L848.4388378170923 351.60042291046597Q845.7887373758214 351.60042291046597 844.0866403444361 350.0491446033805L844.0866403444361 350.0491446033805Q840.9840837302652 347.39904416210953 838.9803492502798 342.52975392042475Q836.9550692382517 337.6389181466971 836.9550692382517 331.4338049183554L836.9550692382517 331.4338049183554Q836.9550692382517 318.24793930812945 845.5732820553928 310.25454692023095Q854.1699493404913 302.26115453233245 871.7726490195022 298.5337774889189Q889.396894230556 294.82794597754815 916.9967207774507 294.82794597754815L916.9967207774507 294.82794597754815Q934.0607821553903 294.82794597754815 944.230273279617 295.431220874748Q954.3782188718008 296.0560413039908 961.9837916829279 297.4565008867762L961.9837916829279 297.4565008867762ZM951.4480265139728 426.98823952840866Q941.8171736908174 426.98823952840866 936.0860621674185 420.0074871465243Q930.3334051119767 413.0267347646399 930.3334051119767 401.6937849100993L930.3334051119767 401.6937849100993Q930.3334051119767 389.2835584534159 936.0860621674185 378.2091549833894Q941.8171736908174 367.11320598132005 951.3618443858013 360.3694544519071Q960.9065150807853 353.60415739045123 971.6146445060832 353.60415739045123L971.6146445060832 353.60415739045123Q975.018838568854 353.60415739045123 976.1822972991681 354.93998037710816Q977.3457560294821 356.2542578317222 978.1213951830248 359.658451894493L978.1213951830248 359.658451894493Q981.3747705214956 359.03363146525027 984.9513288406092 359.03363146525027L984.9513288406092 359.03363146525027Q992.5569016517363 359.03363146525027 992.5569016517363 364.4631055400492L992.5569016517363 364.4631055400492Q992.5569016517363 367.7380264105629 990.2299841911083 379.9758886109034L990.2299841911083 379.9758886109034Q986.6534258719946 397.8155891423857 986.6534258719946 404.7963415242701L986.6534258719946 404.7963415242701Q986.6534258719946 407.1232589848982 987.8168846023086 408.5237185676836Q988.9803433326227 409.9241781504691 990.8332590883081 409.9241781504691L990.8332590883081 409.9241781504691Q993.7849969781789 409.9241781504691 997.9863757265352 406.132164510927Q1002.1662089428488 402.318605339342 1009.2977800490332 393.7865746503722L1009.2977800490332 393.7865746503722Q1011.1722413367614 391.610475914044 1013.4991587973896 391.610475914044L1013.4991587973896 391.610475914044Q1015.5028932773748 391.610475914044 1016.6663520076888 393.4849372017722Q1017.829810738003 395.33785295745764 1017.829810738003 398.5912282959284L1017.829810738003 398.5912282959284Q1017.829810738003 404.7963415242701 1014.8780728481322 408.2220811190837L1014.8780728481322 408.2220811190837Q1008.5221408954905 416.1292913788108 1001.390569789306 421.55876545360974Q994.2589986831217 426.98823952840866 987.5798837498373 426.98823952840866L987.5798837498373 426.98823952840866Q982.4735926556812 426.98823952840866 978.2075773111962 423.4978633374665Q973.9415619667113 420.0074871465243 971.7654632303831 413.95319264248263L971.7654632303831 413.95319264248263Q963.6858887143133 426.98823952840866 951.4480265139728 426.98823952840866L951.4480265139728 426.98823952840866ZM957.0283193130717 411.3246377332545Q960.4325133758425 411.3246377332545 963.5350699900133 407.295623241241Q966.6376266041841 403.2450632171846 968.0380861869696 396.5874938159431L968.0380861869696 396.5874938159431L973.7691977103684 368.0396638591628Q967.2624470334268 368.1904825834627 961.7467908304565 372.9304996328904Q956.252680159529 377.64897115027526 952.9993048210582 385.4053626857023Q949.7243839505445 393.16175422112946 949.7243839505445 401.8661491664421L949.7243839505445 401.8661491664421Q949.7243839505445 406.67080281199827 951.6634818344013 408.9977202726264Q953.6025797182581 411.3246377332545 957.0283193130717 411.3246377332545L957.0283193130717 411.3246377332545ZM1034.1182329623998 430.39243359117944Q1026.0602039783728 430.39243359117944 1021.7941886338879 426.6866020798088Q1017.528173289403 422.95922503639514 1017.528173289403 418.3053901151389L1017.528173289403 418.3053901151389Q1017.528173289403 414.2763756231254 1020.4799111792739 411.3246377332545Q1023.4101035371019 408.37289984338366 1029.1627605925437 408.37289984338366L1029.1627605925437 408.37289984338366Q1031.166495072529 408.37289984338366 1033.8812321099285 408.760719420155Q1036.5959691473279 409.14853899692633 1037.9964287301134 409.2993577212264L1037.9964287301134 409.2993577212264Q1037.8456100058133 405.27034322921287 1036.2081495705565 401.6937849100993Q1034.5922346673426 398.13877212302845 1032.1144984824145 394.79921465638625Q1029.6152167654436 391.45965718974406 1027.4606635611583 388.9819210048159L1027.4606635611583 388.9819210048159Q1022.6344643835591 398.13877212302845 1017.9159928661744 404.1930666270702Q1013.1759758167467 410.225815599069 1007.5956830176477 415.655289673868L1007.5956830176477 415.655289673868Q1004.7947638520768 418.45620883943894 1001.6922072379061 418.45620883943894L1001.6922072379061 418.45620883943894Q999.214471052978 418.45620883943894 997.6631927458925 416.6679296798821Q996.1119144388072 414.87965052032524 996.1119144388072 412.25109561109724L996.1119144388072 412.25109561109724Q996.1119144388072 409.14853899692633 998.2880131751352 406.51998408769833L998.2880131751352 406.51998408769833L1000.3132931871635 404.0207023707274Q1008.8453238761333 393.4849372017722 1013.1759758167467 386.65500354418776L1013.1759758167467 386.65500354418776Q1015.8260762580176 382.15198734723157 1019.3810890450884 374.6325966642758Q1022.957647364202 367.11320598132005 1026.3618414269727 359.03363146525027L1026.3618414269727 359.03363146525027Q1029.3135793168435 352.2252433397086 1038.6212491593562 352.2252433397086L1038.6212491593562 352.2252433397086Q1042.9734466320124 352.2252433397086 1044.6755436633978 353.00088249325137Q1046.3776406947832 353.77652164679404 1046.3776406947832 355.47861867817943L1046.3776406947832 355.47861867817943Q1046.3776406947832 356.40507655602215 1045.7528202655405 358.4303565680503Q1045.127999836298 360.43409104803567 1044.0507232341552 362.4593710600638L1044.0507232341552 362.4593710600638Q1041.2498040685841 368.0396638591628 1041.2498040685841 371.91785962687635L1041.2498040685841 371.91785962687635Q1041.2498040685841 374.2447770875045 1042.8872645038412 377.0456962530754Q1044.524724939098 379.82506988660344 1047.9289190018687 384.02644863495976L1047.9289190018687 384.02644863495976Q1052.8843913717249 390.53319931190134 1055.4483096848244 395.10085210498625Q1058.012227997924 399.6900504301139 1058.012227997924 405.1195245049128L1058.012227997924 405.1195245049128Q1058.012227997924 406.67080281199827 1057.710590549324 409.4501764455263L1057.710590549324 409.4501764455263Q1065.2946178284083 406.51998408769833 1075.5502910808063 393.7865746503722L1075.5502910808063 393.7865746503722Q1077.4032068364916 391.610475914044 1079.7301242971198 391.610475914044L1079.7301242971198 391.610475914044Q1081.755404309148 391.610475914044 1082.918863039462 393.4849372017722Q1084.082321769776 395.33785295745764 1084.082321769776 398.5912282959284L1084.082321769776 398.5912282959284Q1084.082321769776 404.4947040756701 1081.1305838799053 408.2220811190837L1081.1305838799053 408.2220811190837Q1073.3741923444782 417.8313884101962 1066.3072578344222 421.32176460113834Q1059.2618688564094 424.8121407920806 1048.8553768797115 425.1353237727233L1048.8553768797115 425.1353237727233Q1042.6502636513696 430.39243359117944 1034.1182329623998 430.39243359117944L1034.1182329623998 430.39243359117944ZM1161.1722354191043 391.610475914044Q1163.1975154311324 391.610475914044 1164.3609741614466 393.4849372017722Q1165.5244328917606 395.33785295745764 1165.5244328917606 398.5912282959284L1165.5244328917606 398.5912282959284Q1165.5244328917606 404.7963415242701 1162.5726950018898 408.2220811190837L1162.5726950018898 408.2220811190837Q1155.5919426200053 416.75411180805355 1148.460371513821 421.8604029022097Q1141.3072548755938 426.98823952840866 1131.5471288601814 426.98823952840866L1131.5471288601814 426.98823952840866Q1119.589358576398 426.98823952840866 1112.3069687459135 420.15830587082434Q1105.0245789154292 413.3283722132399 1105.0245789154292 402.016967890742L1105.0245789154292 402.016967890742Q1105.0245789154292 395.9626733867004 1111.229692143771 393.33411847747226L1111.229692143771 393.33411847747226Q1118.0380802693126 390.3823805876014 1120.9898181591834 387.0428231209592Q1123.9415560490543 383.7032656543169 1123.9415560490543 378.8986120087607L1123.9415560490543 378.8986120087607Q1123.9415560490543 376.0976928431898 1122.77809731874 374.71877879244727Q1121.6146385884263 373.31831920966175 1119.9125415570406 373.31831920966175L1119.9125415570406 373.31831920966175Q1115.7111628086843 373.31831920966175 1110.6695083106567 379.3726137137035Q1105.627853812629 385.4053626857023 1101.2972018720156 394.9500333806862Q1096.9450043993593 404.4947040756701 1094.4672682144312 414.57801307172537L1094.4672682144312 414.57801307172537Q1092.7651711830458 421.8604029022097 1090.5028903185462 424.42432121530913Q1088.2621549860896 426.98823952840866 1083.4575013405333 426.98823952840866L1083.4575013405333 426.98823952840866Q1078.652847694977 426.98823952840866 1076.3905668304774 423.4978633374665Q1074.1498314980208 420.0074871465243 1073.3741923444782 412.72509731604003Q1072.5985531909355 405.4211619535128 1072.5985531909355 391.3088384654441L1072.5985531909355 391.3088384654441Q1072.5985531909355 367.41484342992004 1077.489388964663 341.5171139144107Q1082.358679206348 315.59783886685847 1091.9033499013317 297.9951391878476Q1101.4480205963155 280.39243950883656 1114.7847049308416 280.39243950883656L1114.7847049308416 280.39243950883656Q1121.916276037026 280.39243950883656 1126.3546556378537 286.51137060900686Q1130.7714897066385 292.65184724122 1130.7714897066385 302.41197325663245L1130.7714897066385 302.41197325663245Q1130.7714897066385 318.0971205838294 1121.6146385884263 334.92418110929765Q1112.4577874702136 351.7512416347659 1091.838713305203 374.2447770875045L1091.838713305203 374.2447770875045Q1091.3647116002605 382.3028060715315 1091.3647116002605 390.83483676050133L1091.3647116002605 390.83483676050133Q1098.8194656870876 371.44385792193356 1108.4287729782 362.6963719125352Q1118.0380802693126 353.9273403710941 1126.4192922339823 353.9273403710941L1126.4192922339823 353.9273403710941Q1134.1756837694093 353.9273403710941 1138.9157008188372 359.20599572159307Q1143.634172336222 364.4631055400492 1143.634172336222 372.2194970754762L1143.634172336222 372.2194970754762Q1143.634172336222 380.75152776444605 1139.3035203956085 387.90464440267334Q1134.951322922952 395.03621550885765 1124.4155577539968 400.6165083079566L1124.4155577539968 400.6165083079566Q1125.0188326511968 404.7963415242701 1128.2075713935392 407.3602598373696Q1131.3963101358813 409.9241781504691 1135.8777808007949 409.9241781504691L1135.8777808007949 409.9241781504691Q1140.7039799783938 409.9241781504691 1145.1854506433074 406.1968011070555Q1149.6884668402636 402.46942406364195 1156.9924022027908 393.7865746503722L1156.9924022027908 393.7865746503722Q1158.8453179584762 391.610475914044 1161.1722354191043 391.610475914044L1161.1722354191043 391.610475914044ZM1111.5313295923709 295.7544038553908Q1108.7304104268 295.7544038553908 1105.3262163640293 303.74779624328926Q1101.9220223012585 311.7196430991449 1098.7332835589161 325.2933282861423Q1095.5445448165738 338.8670134731398 1093.5408103365885 354.8537982489367L1093.5408103365885 354.8537982489367Q1103.150117627701 343.52084839439607 1109.441412984214 330.18416405986994Q1115.7111628086843 316.84747972534393 1115.7111628086843 305.98853157574604L1115.7111628086843 305.98853157574604Q1115.7111628086843 301.0330592058898 1114.6338862065418 298.38295876461893Q1113.556609604399 295.7544038553908 1111.5313295923709 295.7544038553908L1111.5313295923709 295.7544038553908Z " fill="#013dc4" transform="matrix(0.7507349725604247,0,0,0.7507349725604247,0,33.19449174553533)"/></g></svg>